<svg width="15" height="15" viewBox="0 0 15 15" fill="none" xmlns="http://www.w3.org/2000/svg">
<g id="Icon" clip-path="url(#clip0_39_1108)">
<path id="Vector" d="M14.4225 7.75C14.4225 8.59766 14.2767 9.39974 13.985 10.1562C13.6933 10.9128 13.29 11.5872 12.775 12.1797C12.2601 12.7721 11.6562 13.2689 10.9635 13.6699C10.2617 14.0618 9.50972 14.3216 8.70764 14.4492V9.70508H10.2799L10.5807 7.75H8.70764V6.47852C8.70764 6.20508 8.78512 5.95898 8.94006 5.74023C9.09501 5.52148 9.38212 5.41211 9.80139 5.41211H10.6627V3.74414C10.6627 3.74414 10.5032 3.72363 10.1842 3.68262C9.86519 3.6416 9.51884 3.62109 9.14514 3.62109C8.3704 3.62109 7.74833 3.84668 7.27893 4.29785C6.80953 4.74902 6.57483 5.403 6.57483 6.25977V7.75H4.85217V9.70508H6.57483V14.4492C5.77275 14.3216 5.02079 14.0618 4.31897 13.6699C3.62626 13.2689 3.02242 12.7721 2.50745 12.1797C1.99247 11.5872 1.58915 10.9128 1.29749 10.1562C1.00582 9.39974 0.859985 8.59766 0.859985 7.75C0.859985 6.8112 1.03772 5.93164 1.39319 5.11133C1.74866 4.29102 2.23401 3.57324 2.84924 2.95801C3.46448 2.34277 4.18225 1.85742 5.00256 1.50195C5.82288 1.14648 6.70243 0.96875 7.64124 0.96875C8.58004 0.96875 9.45959 1.14648 10.2799 1.50195C11.1002 1.85742 11.818 2.34277 12.4332 2.95801C13.0485 3.57324 13.5338 4.29102 13.8893 5.11133C14.2448 5.93164 14.4225 6.8112 14.4225 7.75Z" fill="#1F1E17"/>
</g>
<defs>
<clipPath id="clip0_39_1108">
<rect width="14" height="14" fill="white" transform="matrix(1 0 0 -1 0.859985 14.75)"/>
</clipPath>
</defs>
</svg>
