<svg width="15" height="15" viewBox="0 0 15 15" fill="none" xmlns="http://www.w3.org/2000/svg">
<g id="Icon" clip-path="url(#clip0_39_1114)">
<path id="Vector" d="M6.98499 4.60547C7.42249 4.60547 7.83264 4.6875 8.21545 4.85156C8.59827 5.01562 8.93095 5.23893 9.2135 5.52148C9.49605 5.80404 9.71936 6.13672 9.88342 6.51953C10.0475 6.90234 10.1295 7.3125 10.1295 7.75C10.1295 8.17839 10.0475 8.58398 9.88342 8.9668C9.71936 9.34961 9.49605 9.68457 9.2135 9.97168C8.93095 10.2588 8.59827 10.4844 8.21545 10.6484C7.83264 10.8125 7.42249 10.8945 6.98499 10.8945C6.5566 10.8945 6.151 10.8125 5.76819 10.6484C5.38538 10.4844 5.05042 10.2588 4.76331 9.97168C4.4762 9.68457 4.25061 9.34961 4.08655 8.9668C3.92249 8.58398 3.84045 8.17839 3.84045 7.75C3.84045 7.3125 3.92249 6.90234 4.08655 6.51953C4.25061 6.13672 4.4762 5.80404 4.76331 5.52148C5.05042 5.23893 5.38538 5.01562 5.76819 4.85156C6.151 4.6875 6.5566 4.60547 6.98499 4.60547ZM6.98499 9.78711C7.55009 9.78711 8.03316 9.58887 8.4342 9.19238C8.83525 8.7959 9.03577 8.3151 9.03577 7.75C9.03577 7.1849 8.83525 6.70182 8.4342 6.30078C8.03316 5.89974 7.55009 5.69922 6.98499 5.69922C6.41988 5.69922 5.93909 5.89974 5.5426 6.30078C5.14612 6.70182 4.94788 7.1849 4.94788 7.75C4.94788 8.3151 5.1484 8.7959 5.54944 9.19238C5.95048 9.58887 6.429 9.78711 6.98499 9.78711ZM10.9908 4.48242C10.9908 4.68294 10.9202 4.85384 10.7789 4.99512C10.6377 5.13639 10.4622 5.20703 10.2526 5.20703C10.052 5.20703 9.88114 5.13639 9.73987 4.99512C9.59859 4.85384 9.52795 4.68294 9.52795 4.48242C9.52795 4.27279 9.59859 4.09733 9.73987 3.95605C9.88114 3.81478 10.052 3.74414 10.2526 3.74414C10.4622 3.74414 10.6377 3.81478 10.7789 3.95605C10.9202 4.09733 10.9908 4.27279 10.9908 4.48242ZM13.069 5.2207C13.0872 5.47591 13.1009 5.83594 13.11 6.30078C13.11 6.75651 13.11 7.2373 13.11 7.74316C13.11 8.24902 13.11 8.73438 13.11 9.19922C13.1009 9.66406 13.0872 10.0241 13.069 10.2793C13.0507 10.7624 12.971 11.2204 12.8297 11.6533C12.6884 12.0863 12.4401 12.4805 12.0846 12.8359C11.7291 13.2005 11.3349 13.4512 10.902 13.5879C10.469 13.7246 10.0065 13.8066 9.51428 13.834C9.25907 13.8431 8.89905 13.8522 8.4342 13.8613C7.97848 13.8704 7.49768 13.875 6.99182 13.875C6.48596 13.875 6.00061 13.8704 5.53577 13.8613C5.07092 13.8522 4.7109 13.8431 4.45569 13.834C3.9635 13.8066 3.50321 13.7246 3.07483 13.5879C2.64644 13.4512 2.24996 13.2005 1.88538 12.8359C1.52991 12.4805 1.28381 12.0863 1.14709 11.6533C1.01038 11.2204 0.928345 10.7624 0.901001 10.2793C0.882772 10.0241 0.873657 9.66406 0.873657 9.19922C0.864543 8.73438 0.859985 8.24902 0.859985 7.74316C0.859985 7.2373 0.864543 6.75195 0.873657 6.28711C0.873657 5.83138 0.882772 5.47591 0.901001 5.2207C0.928345 4.72852 1.01038 4.26595 1.14709 3.83301C1.28381 3.40007 1.52991 3.00586 1.88538 2.65039C2.24996 2.29492 2.64872 2.04655 3.08167 1.90527C3.51461 1.764 3.97262 1.68425 4.45569 1.66602C4.7109 1.64779 5.07092 1.63411 5.53577 1.625C6.00061 1.625 6.48596 1.625 6.99182 1.625C7.49768 1.625 7.97848 1.625 8.4342 1.625C8.89905 1.63411 9.25907 1.64779 9.51428 1.66602C10.0065 1.69336 10.469 1.77539 10.902 1.91211C11.3349 2.04883 11.7291 2.29492 12.0846 2.65039C12.4401 3.01497 12.6884 3.41146 12.8297 3.83984C12.971 4.26823 13.0507 4.72852 13.069 5.2207ZM11.7701 11.3594C11.8431 11.1589 11.8977 10.8991 11.9342 10.5801C11.9707 10.2611 11.9957 9.92839 12.0094 9.58203C12.0231 9.23568 12.0253 8.89844 12.0162 8.57031C12.0162 8.24219 12.0162 7.96875 12.0162 7.75C12.0162 7.52214 12.0162 7.24414 12.0162 6.91602C12.0253 6.58789 12.0231 6.25065 12.0094 5.9043C11.9957 5.55794 11.9707 5.22982 11.9342 4.91992C11.8977 4.60091 11.8431 4.34115 11.7701 4.14062C11.6608 3.86719 11.5058 3.63021 11.3053 3.42969C11.1048 3.22917 10.8678 3.07422 10.5944 2.96484C10.3938 2.89193 10.1341 2.83724 9.81506 2.80078C9.50517 2.76432 9.17704 2.73926 8.83069 2.72559C8.48433 2.71191 8.14709 2.70964 7.81897 2.71875C7.49084 2.71875 7.21285 2.71875 6.98499 2.71875C6.76624 2.71875 6.4928 2.71875 6.16467 2.71875C5.83655 2.70964 5.49931 2.71191 5.15295 2.72559C4.8066 2.73926 4.47392 2.76432 4.15491 2.80078C3.8359 2.83724 3.57613 2.89193 3.37561 2.96484C3.10217 3.07422 2.86519 3.22917 2.66467 3.42969C2.46415 3.63021 2.31376 3.86719 2.2135 4.14062C2.13147 4.34115 2.07222 4.60091 2.03577 4.91992C1.99931 5.22982 1.97652 5.55794 1.96741 5.9043C1.95829 6.25065 1.95374 6.58789 1.95374 6.91602C1.96285 7.24414 1.96741 7.52214 1.96741 7.75C1.96741 7.96875 1.96285 8.24219 1.95374 8.57031C1.95374 8.89844 1.95829 9.23568 1.96741 9.58203C1.97652 9.92839 1.99931 10.2611 2.03577 10.5801C2.07222 10.8991 2.13147 11.1589 2.2135 11.3594C2.32288 11.6328 2.47782 11.8675 2.67834 12.0635C2.87887 12.2594 3.11129 12.4121 3.37561 12.5215C3.57613 12.6035 3.8359 12.6628 4.15491 12.6992C4.47392 12.7357 4.8066 12.7585 5.15295 12.7676C5.49931 12.7767 5.83655 12.7812 6.16467 12.7812C6.4928 12.7721 6.76624 12.7676 6.98499 12.7676C7.21285 12.7676 7.49084 12.7721 7.81897 12.7812C8.14709 12.7812 8.48433 12.7767 8.83069 12.7676C9.17704 12.7585 9.50517 12.7357 9.81506 12.6992C10.1341 12.6628 10.3938 12.6035 10.5944 12.5215C10.8678 12.4121 11.1048 12.2572 11.3053 12.0566C11.5058 11.8561 11.6608 11.6237 11.7701 11.3594Z" fill="#1F1E17"/>
</g>
<defs>
<clipPath id="clip0_39_1114">
<rect width="14" height="14" fill="white" transform="matrix(1 0 0 -1 0.859985 14.75)"/>
</clipPath>
</defs>
</svg>
