<svg width="25" height="24" viewBox="0 0 25 24" fill="none" xmlns="http://www.w3.org/2000/svg">
<g id="Link - search" clip-path="url(#clip0_39_1160)">
<path id="Vector" d="M24.2891 22.7812L18.4531 16.9453C19.2344 16.0391 19.8477 15.0156 20.293 13.875C20.7383 12.7344 20.9609 11.5234 20.9609 10.2422C20.9609 8.82031 20.6953 7.49219 20.1641 6.25781C19.6328 5.00781 18.9023 3.92188 17.9727 3C17.043 2.07812 15.9531 1.34375 14.7031 0.796875C13.4688 0.265625 12.1484 0 10.7422 0C9.32031 0 7.99219 0.265625 6.75781 0.796875C5.50781 1.34375 4.42188 2.07812 3.5 3C2.57812 3.92188 1.84375 5.00781 1.29688 6.25781C0.765625 7.49219 0.5 8.82031 0.5 10.2422C0.5 11.6484 0.765625 12.9688 1.29688 14.2031C1.84375 15.4531 2.57812 16.5391 3.5 17.4609C4.42188 18.3828 5.50781 19.1172 6.75781 19.6641C7.99219 20.1953 9.32031 20.4609 10.7422 20.4609C12.0234 20.4609 13.2344 20.2383 14.375 19.793C15.5156 19.3477 16.5391 18.7344 17.4453 17.9531L23.2812 23.7891C23.3438 23.8516 23.4219 23.9023 23.5156 23.9414C23.6094 23.9805 23.6953 24 23.7734 24C23.8672 24 23.9609 23.9844 24.0547 23.9531C24.1484 23.9219 24.2266 23.8672 24.2891 23.7891C24.4297 23.6484 24.5 23.4805 24.5 23.2852C24.5 23.0898 24.4297 22.9219 24.2891 22.7812ZM1.92969 10.2422C1.92969 9.02344 2.16406 7.88281 2.63281 6.82031C3.08594 5.74219 3.71094 4.80469 4.50781 4.00781C5.30469 3.21094 6.24219 2.58594 7.32031 2.13281C8.38281 1.66406 9.52344 1.42969 10.7422 1.42969C11.9453 1.42969 13.0859 1.66406 14.1641 2.13281C15.2266 2.58594 16.1562 3.21094 16.9531 4.00781C17.75 4.80469 18.375 5.74219 18.8281 6.82031C19.2969 7.88281 19.5312 9.02344 19.5312 10.2422C19.5312 11.4453 19.2969 12.5859 18.8281 13.6641C18.375 14.7266 17.75 15.6562 16.9531 16.4531C16.1562 17.25 15.2266 17.8828 14.1641 18.3516C13.0859 18.8047 11.9453 19.0312 10.7422 19.0312C9.52344 19.0312 8.38281 18.8047 7.32031 18.3516C6.24219 17.8828 5.30469 17.25 4.50781 16.4531C3.71094 15.6562 3.08594 14.7266 2.63281 13.6641C2.16406 12.5859 1.92969 11.4453 1.92969 10.2422Z" fill="#1F1E17"/>
</g>
<defs>
<clipPath id="clip0_39_1160">
<rect width="24" height="24" fill="white" transform="matrix(1 0 0 -1 0.5 24)"/>
</clipPath>
</defs>
</svg>
