<svg width="15" height="15" viewBox="0 0 15 15" fill="none" xmlns="http://www.w3.org/2000/svg">
<g id="Icon" clip-path="url(#clip0_39_1105)">
<path id="Vector" d="M13.4244 4.89258C13.4244 4.95638 13.4244 5.02018 13.4244 5.08398C13.4244 5.14779 13.4244 5.21159 13.4244 5.27539C13.4244 6.22331 13.2467 7.18034 12.8912 8.14648C12.5358 9.11263 12.014 9.98763 11.3258 10.7715C10.6377 11.5553 9.78316 12.1979 8.76233 12.6992C7.75061 13.1914 6.58394 13.4375 5.26233 13.4375C4.86129 13.4375 4.4648 13.4102 4.07288 13.3555C3.68095 13.2917 3.30042 13.2051 2.93127 13.0957C2.56213 12.9863 2.20439 12.8542 1.85803 12.6992C1.51168 12.5352 1.179 12.3529 0.859985 12.1523C0.978475 12.1615 1.09469 12.1683 1.20862 12.1729C1.32255 12.1774 1.43876 12.1797 1.55725 12.1797C2.22262 12.1797 2.85836 12.0726 3.46448 11.8584C4.0706 11.6442 4.61975 11.3457 5.11194 10.9629C4.48303 10.9447 3.92476 10.7487 3.43713 10.375C2.9495 10.0013 2.61454 9.5319 2.43225 8.9668C2.5234 8.97591 2.61226 8.98503 2.69885 8.99414C2.78544 9.00326 2.87887 9.00781 2.97913 9.00781C3.10673 9.00781 3.23433 9.00098 3.36194 8.9873C3.48954 8.97363 3.61259 8.94857 3.73108 8.91211C3.07483 8.77539 2.52795 8.44727 2.09045 7.92773C1.65295 7.4082 1.4342 6.79753 1.4342 6.0957V6.06836C1.62561 6.16862 1.83069 6.25065 2.04944 6.31445C2.26819 6.37826 2.4915 6.41471 2.71936 6.42383C2.33655 6.16862 2.02893 5.83138 1.79651 5.41211C1.56409 4.99284 1.44788 4.53255 1.44788 4.03125C1.44788 3.76693 1.48206 3.514 1.55042 3.27246C1.61877 3.03092 1.7122 2.80534 1.83069 2.5957C2.18616 3.02409 2.58264 3.41602 3.02014 3.77148C3.45764 4.12695 3.92704 4.43457 4.42834 4.69434C4.92965 4.9541 5.46285 5.16146 6.02795 5.31641C6.58394 5.47135 7.15816 5.5625 7.75061 5.58984C7.73238 5.48047 7.71643 5.37109 7.70276 5.26172C7.68909 5.15234 7.68225 5.04297 7.68225 4.93359C7.68225 4.54167 7.75517 4.16797 7.901 3.8125C8.05595 3.46615 8.26331 3.16309 8.52307 2.90332C8.78284 2.64355 9.0859 2.44075 9.43225 2.29492C9.77861 2.13997 10.1523 2.0625 10.5533 2.0625C10.9635 2.0625 11.3486 2.14453 11.7086 2.30859C12.0686 2.47266 12.3808 2.69141 12.6451 2.96484C12.9733 2.91016 13.29 2.82357 13.5953 2.70508C13.9007 2.58659 14.1901 2.44531 14.4635 2.28125C14.3632 2.60938 14.2037 2.91016 13.985 3.18359C13.7662 3.45703 13.5065 3.68034 13.2057 3.85352C13.4974 3.82617 13.7822 3.77376 14.0602 3.69629C14.3382 3.61882 14.6048 3.52539 14.86 3.41602C14.6686 3.69857 14.4498 3.96517 14.2037 4.21582C13.9576 4.46647 13.6979 4.69206 13.4244 4.89258Z" fill="#1F1E17"/>
</g>
<defs>
<clipPath id="clip0_39_1105">
<rect width="14" height="14" fill="white" transform="matrix(1 0 0 -1 0.859985 14.75)"/>
</clipPath>
</defs>
</svg>
